<?xml version="1.0" encoding="iso-8859-1"?>
<!-- Generator: Adobe Illustrator 24.2.3, SVG Export Plug-In . SVG Version: 6.00 Build 0)  -->
<svg version="1.1" xmlns="http://www.w3.org/2000/svg" xmlns:xlink="http://www.w3.org/1999/xlink" x="0px" y="0px"
	 viewBox="0 0 40 40" style="enable-background:new 0 0 40 40;" xml:space="preserve">
<g id="Guias" style="display:none;">
</g>
<g id="VsCode">
	<defs>
		<filter id="Adobe_OpacityMaskFilter" filterUnits="userSpaceOnUse" x="1.943" y="2" width="36.057" height="35.85">
			<feColorMatrix  type="matrix" values="1 0 0 0 0  0 1 0 0 0  0 0 1 0 0  0 0 0 1 0"/>
		</filter>
	</defs>
	<mask maskUnits="userSpaceOnUse" x="1.943" y="2" width="36.057" height="35.85" id="mask0_2_">
		<path style="fill-rule:evenodd;clip-rule:evenodd;fill:#FFFFFF;filter:url(#Adobe_OpacityMaskFilter);" d="M27.518,37.696
			c0.568,0.221,1.215,0.207,1.788-0.069l7.419-3.57c0.78-0.375,1.275-1.164,1.275-2.03V7.822c0-0.866-0.496-1.655-1.275-2.03
			l-7.419-3.57c-0.752-0.362-1.632-0.273-2.291,0.207c-0.094,0.069-0.184,0.145-0.268,0.229L12.543,15.615l-6.187-4.696
			c-0.576-0.437-1.381-0.401-1.916,0.085L2.456,12.81c-0.654,0.595-0.655,1.624-0.002,2.221l5.365,4.895L2.454,24.82
			c-0.653,0.596-0.653,1.625,0.002,2.221l1.984,1.805c0.535,0.487,1.34,0.522,1.916,0.085l6.187-4.696l14.203,12.958
			C26.97,37.417,27.234,37.586,27.518,37.696z M28.997,11.744l-10.777,8.18l10.777,8.18V11.744z"/>
	</mask>
	<g style="mask:url(#mask0_2_);">
		<path style="fill:#0065A9;" d="M36.725,5.798L29.3,2.223c-0.859-0.414-1.887-0.239-2.561,0.435L2.433,24.82
			c-0.654,0.596-0.653,1.625,0.002,2.22l1.985,1.805c0.535,0.487,1.341,0.522,1.917,0.085l29.27-22.205C36.59,5.98,38,6.68,38,7.913
			V7.827C38,6.962,37.504,6.173,36.725,5.798z"/>
		<g>
			<path style="fill:#007ACC;" d="M36.725,34.052L29.3,37.627c-0.859,0.414-1.887,0.239-2.561-0.435L2.433,15.03
				c-0.654-0.596-0.653-1.625,0.002-2.221l1.985-1.805c0.535-0.487,1.341-0.522,1.917-0.085l29.27,22.205
				C36.59,33.869,38,33.169,38,31.937v0.086C38,32.888,37.504,33.677,36.725,34.052z"/>
		</g>
		<g>
			<path style="fill:#1F9CF0;" d="M29.3,37.628c-0.86,0.414-1.887,0.239-2.561-0.436c0.831,0.831,2.252,0.242,2.252-0.933V3.591
				c0-1.175-1.421-1.764-2.252-0.933c0.675-0.675,1.702-0.849,2.561-0.436l7.424,3.57C37.504,6.167,38,6.956,38,7.822v24.206
				c0,0.866-0.496,1.655-1.276,2.03L29.3,37.628z"/>
		</g>
		<g style="opacity:0.25;">
			
				<linearGradient id="SVGID_1_" gradientUnits="userSpaceOnUse" x1="19.9604" y1="40" x2="19.9604" y2="4.1505" gradientTransform="matrix(1 0 0 -1 0 42)">
				<stop  offset="0" style="stop-color:#FFFFFF"/>
				<stop  offset="1" style="stop-color:#FFFFFF;stop-opacity:0"/>
			</linearGradient>
			<path style="fill-rule:evenodd;clip-rule:evenodd;fill:url(#SVGID_1_);" d="M27.496,37.696c0.568,0.221,1.215,0.207,1.788-0.069
				l7.419-3.57c0.78-0.375,1.275-1.164,1.275-2.03V7.822c0-0.866-0.496-1.655-1.275-2.03l-7.419-3.57
				c-0.752-0.362-1.632-0.273-2.291,0.207c-0.094,0.069-0.184,0.145-0.268,0.229L12.521,15.615l-6.187-4.696
				c-0.576-0.437-1.381-0.401-1.916,0.085L2.434,12.81c-0.654,0.595-0.655,1.624-0.002,2.221l5.365,4.895L2.432,24.82
				c-0.653,0.596-0.653,1.625,0.002,2.22l1.984,1.805c0.535,0.487,1.34,0.522,1.916,0.085l6.187-4.696l14.203,12.958
				C26.949,37.416,27.212,37.586,27.496,37.696z M28.975,11.744l-10.777,8.18l10.777,8.18V11.744z"/>
		</g>
	</g>
</g>
<g id="Vue" style="display:none;">
	<g transform="matrix(1.3333 0 0 -1.3333 -76.311 313.34)" style="display:inline;">
		<g transform="translate(178.06 235.01)">
			<path style="fill:#41B883;" d="M-102.706-3.304l-3.119-5.402l-3.119,5.402h-10.386l13.505-23.392L-92.32-3.304H-102.706z"/>
		</g>
		<g transform="translate(178.06 235.01)">
			<path style="fill:#34495E;" d="M-102.706-3.304l-3.119-5.402l-3.119,5.402h-4.984l8.103-14.035l8.103,14.035H-102.706z"/>
		</g>
	</g>
</g>
<g id="Trello" style="display:none;">
	
		<linearGradient id="SVGID_2_" gradientUnits="userSpaceOnUse" x1="-272.91" y1="400.8094" x2="-272.91" y2="402.2375" gradientTransform="matrix(25.2082 0 0 -25.1919 6899.5635 10135.1367)">
		<stop  offset="0" style="stop-color:#0052CC"/>
		<stop  offset="1" style="stop-color:#2684FF"/>
	</linearGradient>
	<path style="display:inline;fill-rule:evenodd;clip-rule:evenodd;fill:url(#SVGID_2_);" d="M33.726,2H6.279
		C3.918,2,2.003,3.912,2,6.274V33.68c-0.005,1.138,0.444,2.231,1.247,3.037s1.894,1.26,3.032,1.26h27.447
		c1.137-0.002,2.227-0.455,3.028-1.262c0.802-0.806,1.25-1.898,1.245-3.035V6.274C37.997,3.915,36.085,2.003,33.726,2z
		 M17.526,27.913c-0.002,0.38-0.154,0.744-0.425,1.012c-0.271,0.267-0.636,0.416-1.017,0.413h-5.998
		c-0.784-0.003-1.419-0.64-1.419-1.425v-17.85c0-0.785,0.634-1.421,1.419-1.425h5.998c0.785,0.003,1.421,0.639,1.425,1.425
		L17.526,27.913z M31.367,19.717c0,0.381-0.152,0.746-0.423,1.013s-0.638,0.416-1.019,0.411h-5.998
		c-0.785-0.003-1.421-0.639-1.425-1.425v-9.655c0.003-0.785,0.639-1.421,1.425-1.425h5.998c0.784,0.003,1.419,0.64,1.419,1.425
		L31.367,19.717z"/>
</g>
<g id="Slack" style="display:none;">
	<path style="display:inline;fill:#E01E5A;" d="M9.596,24.758c0,2.092-1.691,3.783-3.783,3.783s-3.783-1.691-3.783-3.783
		s1.691-3.783,3.783-3.783h3.783V24.758z M11.487,24.758c0-2.092,1.691-3.783,3.783-3.783s3.783,1.691,3.783,3.783v9.459
		c0,2.092-1.691,3.783-3.783,3.783s-3.783-1.691-3.783-3.783V24.758z"/>
	<path style="display:inline;fill:#36C5F0;" d="M15.271,9.567c-2.092,0-3.783-1.691-3.783-3.783S13.178,2,15.271,2
		s3.783,1.691,3.783,3.783v3.783H15.271z M15.271,11.487c2.092,0,3.783,1.691,3.783,3.783s-1.691,3.783-3.783,3.783H5.783
		C3.691,19.054,2,17.363,2,15.271s1.691-3.783,3.783-3.783H15.271z"/>
	<path style="display:inline;fill:#2EB67D;" d="M30.433,15.271c0-2.092,1.691-3.783,3.783-3.783c2.092,0,3.783,1.691,3.783,3.783
		s-1.691,3.783-3.783,3.783h-3.783V15.271z M28.541,15.271c0,2.092-1.691,3.783-3.783,3.783s-3.783-1.691-3.783-3.783V5.783
		C20.975,3.691,22.666,2,24.758,2s3.783,1.691,3.783,3.783C28.541,5.783,28.541,15.271,28.541,15.271z"/>
	<path style="display:inline;fill:#ECB22E;" d="M24.758,30.433c2.092,0,3.783,1.691,3.783,3.783c0,2.092-1.691,3.783-3.783,3.783
		s-3.783-1.691-3.783-3.783v-3.783H24.758z M24.758,28.541c-2.092,0-3.783-1.691-3.783-3.783s1.691-3.783,3.783-3.783h9.487
		c2.092,0,3.783,1.691,3.783,3.783s-1.691,3.783-3.783,3.783H24.758z"/>
</g>
<g id="Sass" style="display:none;">
	<path style="display:inline;fill:#CD6799;" d="M33.017,21.944c-1.251,0.007-2.339,0.308-3.25,0.753
		c-0.334-0.662-0.668-1.251-0.727-1.684c-0.066-0.505-0.144-0.812-0.066-1.415c0.079-0.603,0.432-1.461,0.426-1.527
		s-0.079-0.373-0.799-0.38c-0.721-0.007-1.343,0.138-1.415,0.328c-0.072,0.19-0.21,0.622-0.301,1.068
		c-0.124,0.655-1.441,2.994-2.195,4.22c-0.242-0.478-0.452-0.898-0.498-1.232c-0.066-0.505-0.144-0.812-0.066-1.415
		c0.079-0.603,0.432-1.461,0.426-1.527c-0.007-0.066-0.079-0.373-0.799-0.38c-0.721-0.007-1.343,0.138-1.415,0.328
		c-0.072,0.19-0.151,0.636-0.301,1.068s-1.9,4.338-2.359,5.347c-0.236,0.518-0.439,0.93-0.583,1.212l0,0c0,0-0.007,0.02-0.026,0.052
		c-0.124,0.242-0.197,0.373-0.197,0.373s0,0,0,0.007c-0.098,0.177-0.203,0.341-0.256,0.341c-0.039,0-0.111-0.472,0.013-1.114
		c0.262-1.356,0.885-3.466,0.878-3.538c0-0.039,0.118-0.406-0.406-0.596c-0.511-0.19-0.695,0.124-0.74,0.124
		c-0.046,0-0.079,0.111-0.079,0.111s0.57-2.372-1.088-2.372c-1.035,0-2.464,1.134-3.171,2.156c-0.446,0.242-1.396,0.76-2.411,1.317
		c-0.387,0.216-0.786,0.432-1.16,0.636c-0.026-0.026-0.052-0.059-0.079-0.085c-2.005-2.143-5.713-3.656-5.556-6.532
		c0.059-1.048,0.419-3.8,7.122-7.142c5.517-2.719,9.907-1.966,10.667-0.295c1.088,2.385-2.352,6.814-8.053,7.456
		c-2.175,0.242-3.315-0.596-3.604-0.911c-0.301-0.328-0.347-0.347-0.459-0.282c-0.183,0.098-0.066,0.393,0,0.563
		c0.17,0.446,0.871,1.232,2.057,1.618c1.048,0.341,3.597,0.531,6.683-0.662c3.453-1.337,6.152-5.052,5.36-8.164
		c-0.793-3.158-6.035-4.2-10.994-2.437c-2.948,1.048-6.146,2.699-8.446,4.849c-2.732,2.555-3.165,4.777-2.988,5.707
		c0.636,3.302,5.189,5.451,7.011,7.044c-0.092,0.052-0.177,0.098-0.249,0.138c-0.911,0.452-4.383,2.267-5.248,4.187
		c-0.983,2.175,0.157,3.735,0.911,3.944c2.339,0.649,4.744-0.518,6.035-2.444s1.134-4.429,0.537-5.576
		c-0.007-0.013-0.013-0.026-0.026-0.039c0.236-0.138,0.478-0.282,0.714-0.419c0.465-0.275,0.924-0.531,1.317-0.74
		c-0.223,0.609-0.387,1.337-0.465,2.385c-0.098,1.232,0.406,2.831,1.068,3.46c0.295,0.275,0.642,0.282,0.865,0.282
		c0.773,0,1.12-0.642,1.507-1.402c0.472-0.93,0.898-2.012,0.898-2.012s-0.531,2.922,0.911,2.922c0.524,0,1.055-0.681,1.291-1.029
		c0,0.007,0,0.007,0,0.007s0.013-0.02,0.039-0.066c0.052-0.085,0.085-0.138,0.085-0.138s0-0.007,0-0.013
		c0.21-0.367,0.681-1.199,1.383-2.582c0.904-1.782,1.776-4.01,1.776-4.01s0.079,0.544,0.347,1.448
		c0.157,0.531,0.485,1.114,0.747,1.677c-0.21,0.295-0.341,0.459-0.341,0.459s0,0,0.007,0.007c-0.17,0.223-0.354,0.465-0.557,0.701
		c-0.714,0.852-1.566,1.828-1.684,2.11c-0.138,0.334-0.105,0.577,0.157,0.773c0.19,0.144,0.531,0.164,0.878,0.144
		c0.642-0.046,1.094-0.203,1.317-0.301c0.347-0.124,0.753-0.315,1.134-0.596c0.701-0.518,1.127-1.258,1.088-2.234
		c-0.02-0.537-0.197-1.075-0.413-1.579c0.066-0.092,0.124-0.183,0.19-0.275c1.107-1.618,1.966-3.394,1.966-3.394
		s0.079,0.544,0.347,1.448c0.131,0.459,0.4,0.957,0.636,1.441c-1.042,0.845-1.684,1.828-1.913,2.47
		c-0.413,1.192-0.092,1.73,0.518,1.854c0.275,0.059,0.668-0.072,0.957-0.197c0.367-0.118,0.799-0.321,1.212-0.622
		c0.701-0.518,1.376-1.238,1.337-2.215c-0.02-0.446-0.138-0.885-0.301-1.31c0.885-0.367,2.025-0.57,3.479-0.4
		c3.119,0.367,3.735,2.313,3.617,3.132c-0.118,0.819-0.773,1.265-0.989,1.402c-0.216,0.138-0.288,0.183-0.269,0.282
		c0.026,0.144,0.131,0.138,0.315,0.111c0.256-0.046,1.638-0.662,1.697-2.169C38.095,24.028,36.26,21.924,33.017,21.944z
		 M8.957,30.056c-1.035,1.127-2.477,1.553-3.099,1.192c-0.668-0.387-0.406-2.051,0.865-3.243c0.773-0.727,1.769-1.402,2.431-1.815
		c0.151-0.092,0.373-0.223,0.642-0.387c0.046-0.026,0.072-0.039,0.072-0.039l0,0c0.052-0.033,0.105-0.066,0.157-0.098
		C10.49,27.369,10.045,28.87,8.957,30.056z M16.492,24.932c-0.36,0.878-1.114,3.125-1.573,3.001
		c-0.393-0.105-0.636-1.808-0.079-3.492c0.282-0.845,0.878-1.854,1.225-2.247c0.563-0.629,1.186-0.839,1.337-0.583
		C17.593,21.944,16.715,24.381,16.492,24.932z M22.71,27.906c-0.151,0.079-0.295,0.131-0.36,0.092
		c-0.046-0.026,0.066-0.131,0.066-0.131s0.78-0.839,1.088-1.219c0.177-0.223,0.387-0.485,0.609-0.78c0,0.026,0,0.059,0,0.085
		C24.112,26.956,23.143,27.631,22.71,27.906z M27.506,26.812c-0.111-0.079-0.092-0.341,0.282-1.16
		c0.144-0.321,0.485-0.858,1.068-1.376c0.066,0.21,0.111,0.413,0.105,0.603C28.954,26.144,28.05,26.616,27.506,26.812z"/>
</g>
<g id="React" style="display:none;">
	<path style="display:inline;fill:#61DAFB;" d="M31.536,14.538L31.536,14.538c-0.382-0.131-0.768-0.253-1.156-0.364
		c0.064-0.262,0.124-0.525,0.179-0.789c0.875-4.249,0.303-7.673-1.652-8.799c-1.874-1.081-4.939,0.046-8.034,2.74
		c-0.305,0.266-0.603,0.54-0.894,0.821c-0.195-0.187-0.393-0.37-0.595-0.55c-3.244-2.88-6.496-4.094-8.448-2.964
		c-1.872,1.084-2.427,4.302-1.639,8.329c0.078,0.399,0.167,0.795,0.266,1.19c-0.46,0.131-0.904,0.27-1.33,0.418
		C4.429,15.895,2,17.973,2,20.129c0,2.226,2.607,4.459,6.569,5.813c0.321,0.109,0.645,0.21,0.971,0.304
		c-0.106,0.425-0.2,0.852-0.282,1.283c-0.751,3.957-0.165,7.099,1.703,8.176c1.929,1.112,5.166-0.031,8.318-2.786
		c0.249-0.218,0.499-0.448,0.75-0.691c0.315,0.304,0.639,0.6,0.971,0.886c3.053,2.627,6.068,3.688,7.934,2.608
		c1.927-1.115,2.553-4.491,1.74-8.598c-0.062-0.314-0.134-0.634-0.215-0.96c0.227-0.067,0.45-0.137,0.668-0.209
		c4.118-1.364,6.798-3.57,6.798-5.826C37.923,17.965,35.416,15.873,31.536,14.538z M21.88,8.483c2.652-2.308,5.131-3.219,6.26-2.568
		l0,0c1.203,0.694,1.671,3.491,0.915,7.16c-0.05,0.239-0.103,0.477-0.162,0.714c-1.583-0.359-3.187-0.612-4.803-0.759
		c-0.926-1.33-1.94-2.596-3.037-3.79C21.323,8.981,21.599,8.728,21.88,8.483z M12.607,21.97c0.325,0.628,0.664,1.247,1.018,1.859
		c0.361,0.624,0.737,1.239,1.128,1.845c-1.112-0.121-2.217-0.298-3.311-0.532C11.76,24.117,12.15,23.053,12.607,21.97z
		 M12.605,18.361c-0.447-1.06-0.829-2.102-1.142-3.108c1.025-0.229,2.118-0.417,3.257-0.559c-0.381,0.595-0.748,1.198-1.101,1.81
		C13.267,17.114,12.929,17.734,12.605,18.361z M13.421,20.166c0.473-0.984,0.982-1.95,1.528-2.896v0
		c0.545-0.946,1.126-1.87,1.742-2.773c1.068-0.081,2.164-0.123,3.271-0.123c1.112,0,2.209,0.043,3.277,0.124
		c0.609,0.901,1.186,1.822,1.731,2.764c0.547,0.944,1.064,1.905,1.549,2.882c-0.48,0.987-0.994,1.957-1.544,2.908h0
		c-0.544,0.945-1.119,1.872-1.723,2.781c-1.066,0.076-2.167,0.115-3.29,0.115c-1.118,0-2.205-0.035-3.252-0.103
		c-0.62-0.906-1.205-1.834-1.756-2.785C14.406,22.115,13.895,21.15,13.421,20.166z M26.304,23.818
		c0.361-0.627,0.709-1.261,1.042-1.903l0,0c0.457,1.032,0.859,2.087,1.206,3.16c-1.106,0.249-2.225,0.439-3.351,0.571
		C25.581,25.044,25.949,24.435,26.304,23.818L26.304,23.818z M27.331,18.362c-0.332-0.63-0.676-1.253-1.033-1.869l0,0
		c-0.351-0.607-0.715-1.205-1.092-1.797c1.146,0.145,2.244,0.337,3.276,0.572C28.15,16.318,27.766,17.351,27.331,18.362z
		 M19.979,10.338c0.747,0.815,1.453,1.666,2.114,2.552c-1.414-0.067-2.83-0.067-4.246-0.001
		C18.545,11.968,19.26,11.113,19.979,10.338z M11.704,5.96c1.202-0.696,3.859,0.296,6.66,2.783c0.179,0.159,0.359,0.325,0.539,0.498
		c-1.103,1.193-2.125,2.458-3.06,3.787c-1.612,0.145-3.214,0.393-4.794,0.745c-0.092-0.367-0.174-0.736-0.247-1.107v0
		C10.127,9.216,10.575,6.613,11.704,5.96z M9.952,24.768c-0.298-0.085-0.593-0.178-0.887-0.278c-1.521-0.479-2.942-1.233-4.19-2.226
		c-0.723-0.496-1.208-1.269-1.341-2.135c0-1.308,1.95-2.976,5.203-4.111c0.408-0.142,0.82-0.271,1.236-0.389
		c0.483,1.549,1.068,3.065,1.751,4.537C11.033,21.659,10.441,23.196,9.952,24.768z M18.268,31.763
		c-1.175,1.079-2.538,1.932-4.021,2.518h0c-0.791,0.378-1.703,0.413-2.519,0.095c-1.133-0.653-1.604-3.176-0.962-6.56
		c0.076-0.4,0.164-0.797,0.262-1.193c1.596,0.343,3.213,0.577,4.841,0.701c0.943,1.336,1.973,2.609,3.084,3.81
		C18.73,31.348,18.502,31.558,18.268,31.763z M20.021,30.028c-0.727-0.785-1.453-1.653-2.161-2.587
		c0.688,0.027,1.388,0.041,2.102,0.041c0.732,0,1.455-0.016,2.169-0.048C21.472,28.334,20.768,29.2,20.021,30.028L20.021,30.028z
		 M29.34,32.163c-0.067,0.874-0.493,1.681-1.176,2.23c-1.132,0.655-3.553-0.197-6.164-2.443c-0.299-0.258-0.6-0.532-0.903-0.824
		c1.089-1.205,2.095-2.483,3.011-3.823c1.637-0.138,3.263-0.389,4.865-0.75c0.073,0.296,0.138,0.585,0.194,0.869l0,0
		C29.516,28.979,29.574,30.586,29.34,32.163L29.34,32.163z M30.643,24.498L30.643,24.498c-0.196,0.065-0.398,0.128-0.603,0.189
		c-0.502-1.557-1.11-3.077-1.819-4.551c0.682-1.454,1.266-2.952,1.748-4.485c0.367,0.107,0.724,0.219,1.068,0.337
		c3.324,1.144,5.352,2.836,5.352,4.14C36.389,21.517,34.199,23.32,30.643,24.498L30.643,24.498z"/>
	<path style="display:inline;fill:#61DAFB;" d="M19.962,16.921c1.772,0,3.208,1.436,3.208,3.208c0,1.772-1.436,3.208-3.208,3.208
		c-1.772,0-3.208-1.436-3.208-3.208c0,0,0,0,0,0C16.754,18.357,18.19,16.921,19.962,16.921
		C19.962,16.921,19.962,16.921,19.962,16.921"/>
</g>
<g id="Postman" style="display:none;">
	<g style="display:inline;">
		<path style="fill:#FF6C37;" d="M34.251,8.99c-6.068-7.857-17.356-9.308-25.214-3.24s-9.308,17.356-3.24,25.214
			s17.356,9.308,25.214,3.24c0.001-0.001,0.003-0.002,0.004-0.003C38.868,28.131,40.317,16.845,34.251,8.99L34.251,8.99z"/>
		<polygon style="fill:#FFFFFF;" points="14.673,20.959 17.475,20.36 16.366,19.266 		"/>
		<path style="fill:#FFFFFF;" d="M28.095,8.705c-1.067,0.006-2.022,0.648-2.423,1.629c-0.4,0.981-0.183,2.111,0.566,2.865
			c0.762,0.766,1.91,0.986,2.906,0.554l-1.768-1.768c-0.059-0.047-0.092-0.119-0.09-0.195c0.002-0.07,0.035-0.136,0.09-0.18
			l2.337-2.352C29.248,8.902,28.68,8.708,28.095,8.705L28.095,8.705z"/>
		<g>
			<path style="fill:#FFFFFF;" d="M19.601,21.692l1.094,1.093c2.703-2.555,5.289-5.18,5.781-7.122L19.601,21.692z"/>
		</g>
		<polygon style="fill:#FFFFFF;" points="12.141,30.036 10.494,28.493 9.145,29.842 		"/>
		<path style="fill:#FFFFFF;" d="M12.711,27.998c2.683-1.299,5.197-2.919,7.49-4.824l-1.036-1.036l-2.82,0.437l-5.446,5.527
			l1.767,1.782c0.034,0.03,0.086,0.03,0.12,0c0.023-0.031,0.023-0.074,0-0.105l-0.299-1.303
			C12.438,28.285,12.531,28.084,12.711,27.998z"/>
		<polygon style="fill:#FFFFFF;" points="17.144,21.842 18.732,21.648 18.029,20.944 17.13,21.842 		"/>
		<path style="fill:#FFFFFF;" d="M30.102,9.634l-2.157,2.157l1.693,1.692c0.116-0.082,0.227-0.172,0.33-0.27
			c0.498-0.496,0.778-1.17,0.779-1.872C30.747,10.713,30.518,10.106,30.102,9.634z M29.847,12.166c-0.038,0.015-0.081,0.015-0.12,0
			c-0.036-0.039-0.056-0.089-0.056-0.142c0-0.054,0.017-0.105,0.056-0.142c0.151-0.192,0.18-0.453,0.075-0.674
			c-0.026-0.05-0.031-0.108-0.015-0.161c0.017-0.054,0.054-0.098,0.104-0.124c0.104-0.047,0.226-0.008,0.285,0.09v-0.001
			c0.169,0.36,0.117,0.785-0.135,1.094C29.993,12.16,29.918,12.183,29.847,12.166z"/>
		<path style="fill:#FFFFFF;" d="M25.024,13.963l-6.636,6.576l0.749,0.764l7.04-6.127c0.174-0.152,0.278-0.369,0.285-0.599
			c0.007-0.231-0.084-0.457-0.254-0.614C25.88,13.637,25.351,13.637,25.024,13.963z"/>
		<g>
			<path style="fill:#FFFFFF;" d="M24.649,13.604c0.227-0.227,0.517-0.336,0.813-0.371c-0.529-0.437-1.291-0.502-1.891-0.123
				c-1.303,0.584-3.4,2.367-6.831,5.782l1.296,1.296L24.649,13.604z"/>
		</g>
	</g>
</g>
<g id="PhpStorm" style="display:none;">
	<g style="display:inline;">
		<g>
			
				<linearGradient id="SVGID_3_" gradientUnits="userSpaceOnUse" x1="2.337" y1="15.8983" x2="17.4359" y2="35.8424" gradientTransform="matrix(1 0 0 -1 0 42)">
				<stop  offset="0.0161" style="stop-color:#765AF8"/>
				<stop  offset="0.3821" style="stop-color:#B345F1"/>
				<stop  offset="0.7581" style="stop-color:#FA3293"/>
				<stop  offset="0.9409" style="stop-color:#FF318C"/>
			</linearGradient>
			<polygon style="fill:url(#SVGID_3_);" points="22.399,9.846 20.703,4.709 8.168,2.037 2.054,8.973 21.166,18.734 			"/>
			
				<linearGradient id="SVGID_4_" gradientUnits="userSpaceOnUse" x1="3.4459" y1="15.1159" x2="18.5206" y2="35.028" gradientTransform="matrix(1 0 0 -1 0 42)">
				<stop  offset="0.0161" style="stop-color:#765AF8"/>
				<stop  offset="0.3821" style="stop-color:#B345F1"/>
				<stop  offset="0.7581" style="stop-color:#FA3293"/>
				<stop  offset="0.9409" style="stop-color:#FF318C"/>
			</linearGradient>
			<polygon style="fill:url(#SVGID_4_);" points="16.439,23.307 16.079,12.62 2.054,8.973 5.496,29.574 16.439,29.472 			"/>
			
				<linearGradient id="SVGID_5_" gradientUnits="userSpaceOnUse" x1="28.1815" y1="16.1219" x2="19.6619" y2="36.3418" gradientTransform="matrix(1 0 0 -1 0 42)">
				<stop  offset="0.1828" style="stop-color:#765AF8"/>
				<stop  offset="0.2382" style="stop-color:#8655F6"/>
				<stop  offset="0.3449" style="stop-color:#9F4CF3"/>
				<stop  offset="0.4425" style="stop-color:#AE47F2"/>
				<stop  offset="0.5219" style="stop-color:#B345F1"/>
			</linearGradient>
			<polygon style="fill:url(#SVGID_5_);" points="13.408,23.101 14.076,14.624 24.248,4.195 33.342,5.839 38.017,17.501 
				33.136,22.33 25.173,21.046 20.241,26.235 			"/>
			
				<linearGradient id="SVGID_6_" gradientUnits="userSpaceOnUse" x1="34.5492" y1="10.4948" x2="14.7347" y2="25.8166" gradientTransform="matrix(1 0 0 -1 0 42)">
				<stop  offset="0.0161" style="stop-color:#765AF8"/>
				<stop  offset="0.3821" style="stop-color:#B345F1"/>
			</linearGradient>
			<polygon style="fill:url(#SVGID_6_);" points="24.248,4.195 9.657,17.142 12.483,33.787 24.608,38 38.017,29.985 			"/>
		</g>
		<g>
			<rect x="8.938" y="8.921" width="22.194" height="22.194"/>
			<rect x="11.045" y="26.954" style="fill:#FFFFFF;" width="8.323" height="1.387"/>
			<path style="fill:#FFFFFF;" d="M10.942,11.798h3.75c2.209,0,3.545,1.284,3.545,3.185v0.051c0,2.158-1.644,3.237-3.75,3.237
				h-1.541v2.774h-2.004L10.942,11.798z M14.589,16.422c1.028,0,1.593-0.617,1.593-1.387v-0.051c0-0.925-0.617-1.387-1.644-1.387
				h-1.541v2.826H14.589z"/>
			<path style="fill:#FFFFFF;" d="M18.751,19.71l1.182-1.439c0.822,0.668,1.695,1.13,2.774,1.13c0.822,0,1.336-0.308,1.336-0.873
				v-0.051c0-0.514-0.308-0.771-1.85-1.182c-1.85-0.462-3.083-0.976-3.083-2.826v-0.051c0-1.695,1.336-2.774,3.237-2.774
				c1.336,0,2.517,0.411,3.442,1.182l-1.079,1.541c-0.822-0.565-1.644-0.925-2.415-0.925c-0.771,0-1.182,0.36-1.182,0.822v0.051
				c0,0.617,0.411,0.822,2.004,1.233c1.85,0.514,2.928,1.182,2.928,2.774v0.051c0,1.85-1.387,2.877-3.391,2.877
				C21.268,21.2,19.881,20.686,18.751,19.71"/>
		</g>
	</g>
</g>
<g id="Php" style="display:none;">
	<g id="g3438" transform="matrix(1.25,0,0,-1.25,-4.4,394.29875)" style="display:inline;">
		<g id="g3440">
			<g>
				<defs>
					<path id="SVGID_7_" d="M5.118,299.439c0-4.17,6.427-7.551,14.354-7.551l0,0c7.927,0,14.354,3.381,14.354,7.551l0,0
						c0,4.17-6.427,7.551-14.354,7.551l0,0C11.545,306.99,5.118,303.609,5.118,299.439"/>
				</defs>
				<clipPath id="SVGID_8_">
					<use xlink:href="#SVGID_7_"  style="overflow:visible;"/>
				</clipPath>
				<g id="g3442" style="clip-path:url(#SVGID_8_);">
					<g id="g3448">
						<g id="g3450">
							
								<radialGradient id="path3462_1_" cx="-224.3385" cy="-17.6058" r="0.0519" gradientTransform="matrix(453.8224 0 0 -453.8224 101823.5625 -7685.5654)" gradientUnits="userSpaceOnUse">
								<stop  offset="0" style="stop-color:#AEB2D5"/>
								<stop  offset="0.3" style="stop-color:#AEB2D5"/>
								<stop  offset="0.75" style="stop-color:#484C89"/>
								<stop  offset="1" style="stop-color:#484C89"/>
							</radialGradient>
							<path id="path3462" style="fill:url(#path3462_1_);" d="M5.118,299.439c0-4.17,6.427-7.551,14.354-7.551l0,0
								c7.927,0,14.354,3.381,14.354,7.551l0,0c0,4.17-6.427,7.551-14.354,7.551l0,0C11.545,306.99,5.118,303.609,5.118,299.439"/>
						</g>
					</g>
				</g>
			</g>
		</g>
		<g id="g3464">
			<g>
				<defs>
					<rect id="SVGID_9_" x="0.782" y="288.926" width="37.381" height="21.027"/>
				</defs>
				<clipPath id="SVGID_10_">
					<use xlink:href="#SVGID_9_"  style="overflow:visible;"/>
				</clipPath>
				<g id="g3466" style="clip-path:url(#SVGID_10_);">
					<g id="g3472" transform="translate(288,27.3594)">
						<path id="path3474" style="fill:#777BB3;" d="M-268.528,265.089c7.618,0,13.793,3.13,13.793,6.99
							c0,3.861-6.176,6.99-13.793,6.99s-13.793-3.13-13.793-6.99C-282.321,268.219-276.145,265.089-268.528,265.089"/>
					</g>
				</g>
			</g>
		</g>
		<g id="g3476">
			<g>
				<defs>
					<rect id="SVGID_11_" x="0.782" y="288.926" width="37.381" height="21.027"/>
				</defs>
				<clipPath id="SVGID_12_">
					<use xlink:href="#SVGID_11_"  style="overflow:visible;"/>
				</clipPath>
				<g id="g3478" style="clip-path:url(#SVGID_12_);">
					<g id="g3484" transform="translate(161.7344,145.3066)">
						<path id="path3486" d="M-148.817,153.266c0.626,0,1.094,0.116,1.39,0.343c0.293,0.225,0.495,0.616,0.601,1.161
							c0.099,0.509,0.061,0.865-0.112,1.056c-0.177,0.196-0.559,0.295-1.137,0.295h-1.001l-0.555-2.855H-148.817z M-152.091,149.748
							c-0.046,0-0.091,0.021-0.12,0.057c-0.03,0.036-0.042,0.083-0.033,0.129l1.471,7.567c0.014,0.073,0.078,0.126,0.153,0.126h3.17
							c0.996,0,1.738-0.27,2.204-0.804c0.469-0.536,0.613-1.286,0.43-2.228c-0.075-0.384-0.203-0.74-0.381-1.06
							c-0.179-0.32-0.415-0.615-0.701-0.879c-0.343-0.321-0.732-0.555-1.154-0.692c-0.415-0.135-0.949-0.204-1.586-0.204h-1.284
							l-0.367-1.886c-0.014-0.073-0.078-0.126-0.153-0.126H-152.091z"/>
					</g>
					<g id="g3488" transform="translate(159.2236,197.3071)">
						<path id="path3490" style="fill:#FFFFFF;" d="M-146.437,103.965h0.873c0.697,0,0.939-0.153,1.021-0.244
							c0.136-0.151,0.162-0.47,0.074-0.922c-0.099-0.506-0.281-0.865-0.543-1.067c-0.268-0.206-0.704-0.311-1.295-0.311h-0.625
							L-146.437,103.965z M-144.94,105.782h-3.17c-0.149,0-0.277-0.106-0.306-0.252l-1.471-7.567
							c-0.018-0.091,0.006-0.186,0.065-0.258c0.059-0.072,0.147-0.113,0.24-0.113h1.648c0.149,0,0.277,0.106,0.306,0.252l0.342,1.76
							h1.155c0.653,0,1.203,0.071,1.634,0.212c0.443,0.144,0.851,0.388,1.212,0.726c0.299,0.275,0.545,0.583,0.731,0.917
							c0.186,0.334,0.32,0.706,0.398,1.106c0.193,0.992,0.036,1.786-0.466,2.36C-143.116,105.494-143.897,105.782-144.94,105.782
							 M-147.309,101.109h1.003c0.665,0,1.16,0.125,1.485,0.376c0.325,0.25,0.545,0.668,0.659,1.254
							c0.109,0.562,0.059,0.959-0.149,1.19c-0.209,0.231-0.626,0.347-1.252,0.347h-1.129L-147.309,101.109 M-144.94,105.471
							c0.954,0,1.649-0.25,2.086-0.751c0.437-0.501,0.569-1.199,0.394-2.096c-0.072-0.369-0.193-0.707-0.364-1.013
							c-0.171-0.306-0.395-0.586-0.671-0.84c-0.329-0.308-0.695-0.528-1.097-0.658c-0.402-0.131-0.915-0.196-1.538-0.196h-1.412
							l-0.391-2.012h-1.648l1.471,7.567H-144.94"/>
					</g>
					<g id="g3492" transform="translate(311.583,116.3066)">
						<path id="path3494" d="M-290.886,180.76c-0.047,0-0.091,0.021-0.12,0.057c-0.03,0.036-0.042,0.083-0.033,0.129l0.651,3.348
							c0.062,0.318,0.047,0.547-0.043,0.644c-0.055,0.059-0.22,0.158-0.706,0.158h-1.179l-0.818-4.209
							c-0.014-0.073-0.078-0.126-0.153-0.126h-1.635c-0.047,0-0.091,0.021-0.12,0.057c-0.03,0.036-0.042,0.083-0.033,0.129
							l1.471,7.567c0.014,0.073,0.078,0.126,0.153,0.126h1.635c0.047,0,0.091-0.021,0.12-0.057c0.03-0.036,0.042-0.083,0.033-0.129
							l-0.355-1.826h1.268c0.966,0,1.621-0.17,2.002-0.521c0.389-0.357,0.51-0.929,0.361-1.699l-0.684-3.521
							c-0.014-0.073-0.078-0.126-0.153-0.126H-290.886z"/>
					</g>
					<g id="g3496" transform="translate(293.6611,271.0571)">
						<path id="path3498" style="fill:#FFFFFF;" d="M-273.895,34.044h-1.635c-0.149,0-0.277-0.106-0.306-0.252l-1.471-7.567
							c-0.018-0.091,0.006-0.186,0.065-0.258c0.059-0.072,0.147-0.113,0.24-0.113h1.635c0.149,0,0.277,0.106,0.306,0.252
							l0.793,4.083h1.05c0.486,0,0.588-0.104,0.592-0.108c0.029-0.032,0.068-0.179,0.004-0.508l-0.651-3.348
							c-0.018-0.091,0.006-0.186,0.065-0.258c0.059-0.072,0.147-0.113,0.24-0.113h1.661c0.149,0,0.277,0.106,0.306,0.252
							l0.684,3.521c0.161,0.827,0.023,1.447-0.408,1.843c-0.412,0.378-1.101,0.562-2.108,0.562h-1.079l0.319,1.641
							c0.018,0.091-0.006,0.186-0.065,0.258C-273.714,34.002-273.802,34.044-273.895,34.044 M-273.895,33.732l-0.391-2.012h1.457
							c0.917,0,1.549-0.16,1.897-0.48c0.348-0.32,0.452-0.838,0.313-1.554l-0.684-3.521h-1.661l0.651,3.348
							c0.074,0.381,0.047,0.641-0.082,0.779c-0.129,0.139-0.402,0.208-0.821,0.208h-1.307l-0.842-4.335h-1.635l1.471,7.567H-273.895
							"/>
					</g>
					<g id="g3500" transform="translate(409.5498,145.3066)">
						<path id="path3502" d="M-383.767,153.266c0.626,0,1.094,0.116,1.39,0.343c0.293,0.225,0.495,0.616,0.601,1.161
							c0.099,0.509,0.061,0.865-0.112,1.056c-0.177,0.196-0.559,0.295-1.137,0.295h-1.001l-0.555-2.855H-383.767z M-387.041,149.748
							c-0.046,0-0.091,0.021-0.12,0.057c-0.03,0.036-0.042,0.083-0.033,0.129l1.471,7.567c0.014,0.073,0.078,0.126,0.153,0.126h3.17
							c0.996,0,1.738-0.27,2.204-0.804c0.469-0.536,0.613-1.286,0.43-2.228c-0.075-0.384-0.203-0.74-0.381-1.06
							c-0.179-0.32-0.414-0.615-0.701-0.879c-0.343-0.321-0.732-0.555-1.154-0.692c-0.415-0.135-0.949-0.204-1.586-0.204h-1.284
							l-0.366-1.886c-0.014-0.073-0.078-0.126-0.153-0.126H-387.041z"/>
					</g>
					<g id="g3504" transform="translate(407.0391,197.3071)">
						<path id="path3506" style="fill:#FFFFFF;" d="M-381.386,103.965h0.873c0.697,0,0.939-0.153,1.021-0.244
							c0.137-0.151,0.162-0.47,0.075-0.922c-0.099-0.506-0.281-0.865-0.543-1.067c-0.268-0.206-0.704-0.311-1.295-0.311h-0.625
							L-381.386,103.965z M-379.89,105.782h-3.17c-0.149,0-0.277-0.106-0.306-0.252l-1.471-7.567
							c-0.018-0.091,0.006-0.186,0.065-0.258c0.059-0.072,0.147-0.113,0.24-0.113h1.648c0.149,0,0.277,0.106,0.306,0.252l0.342,1.76
							h1.155c0.653,0,1.203,0.071,1.634,0.212c0.443,0.144,0.852,0.388,1.213,0.726c0.299,0.275,0.544,0.583,0.731,0.917
							c0.186,0.334,0.32,0.706,0.398,1.106c0.193,0.992,0.036,1.786-0.466,2.361C-378.066,105.494-378.846,105.782-379.89,105.782
							 M-382.259,101.109h1.003c0.665,0,1.16,0.125,1.485,0.376c0.325,0.25,0.545,0.668,0.659,1.254
							c0.109,0.562,0.059,0.959-0.149,1.19c-0.209,0.231-0.626,0.347-1.252,0.347h-1.129L-382.259,101.109 M-379.89,105.471
							c0.954,0,1.649-0.25,2.086-0.751s0.569-1.199,0.394-2.096c-0.072-0.369-0.193-0.707-0.364-1.013
							c-0.171-0.306-0.395-0.586-0.671-0.84c-0.329-0.308-0.695-0.528-1.097-0.658c-0.402-0.131-0.915-0.196-1.538-0.196h-1.412
							l-0.391-2.012h-1.648l1.471,7.567H-379.89"/>
					</g>
				</g>
			</g>
		</g>
	</g>
</g>
<g id="NsVue" style="display:none;">
	<rect id="NativeScript-Vue" x="-283.941" y="-217.123" style="display:inline;fill:none;" width="609.698" height="456.88"/>
	<g style="display:inline;">
		<defs>
			<rect id="SVGID_13_" x="2" y="6.512" width="36" height="26.977"/>
		</defs>
		<clipPath id="SVGID_14_">
			<use xlink:href="#SVGID_13_"  style="overflow:visible;"/>
		</clipPath>
		<g style="clip-path:url(#SVGID_14_);">
			<g>
				<path style="fill-rule:evenodd;clip-rule:evenodd;fill:#35495E;" d="M13.499,16.294l1.59,2.607l-5.012,8.772h-3.2L13.499,16.294
					z"/>
				<path style="fill-rule:evenodd;clip-rule:evenodd;fill:#35495E;" d="M21.167,9.852l3.164,5.483l3.163-5.483h4.225l-7.388,13.074
					L16.785,9.852C16.785,9.852,21.167,9.852,21.167,9.852z"/>
				<path style="fill-rule:evenodd;clip-rule:evenodd;fill:#42B883;" d="M14.204,6.602L24.332,24.09l8.222-14.238h5.473
					L24.332,33.579L13.503,14.877L6.149,27.62L2.027,27.67L14.204,6.602L14.204,6.602z"/>
			</g>
		</g>
	</g>
</g>
<g id="MySQL" style="display:none;">
	<g id="layer2" transform="translate(-1.12456,-14.78342)" style="display:inline;">
		<g id="g10079" transform="translate(-157.5838,-296.9848)">
			<path id="path1963" style="fill:#9C9C9C;fill-opacity:0;" d="M160.708,329.423v-9.299h18h18v9.299v9.299h-18h-18V329.423z"/>
			<path id="path1961" style="fill:#E48C00;" d="M187.016,337.481l-0.439-0.404l-1.494-0.029c-1.275-0.025-1.547-0.056-1.856-0.213
				c-0.665-0.338-0.736-0.524-0.775-2.033c-0.046-1.77,0.021-2.269,0.356-2.65c0.37-0.421,0.78-0.528,2.245-0.585
				c2.014-0.079,2.953,0.167,3.237,0.848c0.162,0.387,0.189,3.384,0.035,3.793c-0.054,0.143-0.202,0.343-0.33,0.446l-0.232,0.186
				l0.514,0.486c0.283,0.268,0.514,0.505,0.514,0.527c0,0.022-0.3,0.039-0.668,0.037
				C187.464,337.886,187.449,337.881,187.016,337.481z M185.182,335.82l-0.432-0.412h0.694c0.679,0,0.703,0.008,1.113,0.369
				c0.633,0.557,0.668,0.481,0.668-1.424c0-2.05,0.1-1.936-1.703-1.936c-1.8,0-1.703-0.108-1.703,1.902
				c0,1.922-0.001,1.92,1.082,1.917l0.714-0.002L185.182,335.82z M176.453,336.657v-0.421h1.821c2.213,0,2.254-0.015,2.212-0.812
				c-0.036-0.686-0.166-0.75-1.507-0.752c-1.209-0.002-1.822-0.155-2.203-0.553c-0.226-0.236-0.273-0.369-0.3-0.854
				c-0.042-0.743,0.151-1.135,0.714-1.448c0.402-0.224,0.474-0.232,2.509-0.262l2.095-0.032v0.423v0.423l-1.772,0.009
				c-0.975,0.005-1.876,0.038-2.003,0.073c-0.209,0.058-0.233,0.115-0.257,0.621c-0.038,0.788-0.004,0.806,1.629,0.864
				c1.212,0.043,1.385,0.07,1.756,0.277c0.551,0.307,0.66,0.542,0.626,1.348c-0.032,0.743-0.144,0.93-0.762,1.261
				c-0.34,0.182-0.529,0.2-2.463,0.227l-2.095,0.029V336.657z M190.318,336.962c-0.524-0.123-0.935-0.409-1.079-0.75
				c-0.094-0.224-0.126-0.839-0.126-2.462v-2.164h0.598h0.598l0.023,2.164c0.022,2.075,0.031,2.17,0.217,2.325
				c0.171,0.142,0.417,0.161,2.026,0.161h1.831v0.414v0.414l-1.864-0.009C191.517,337.05,190.516,337.008,190.318,336.962z"/>
			<path id="path1895" style="fill:#E48C00;" d="M195.773,335.42c-0.484,0-0.878,0.394-0.878,0.878s0.394,0.878,0.878,0.878
				c0.484,0,0.878-0.394,0.878-0.878S196.257,335.42,195.773,335.42z M195.784,335.644c0.358,0,0.647,0.292,0.647,0.65
				s-0.289,0.65-0.647,0.65s-0.65-0.292-0.65-0.65S195.426,335.644,195.784,335.644z"/>
			<path id="text1905" style="fill:#E48C00;" d="M195.74,336.247c0.049,0,0.083-0.01,0.104-0.029
				c0.021-0.02,0.032-0.052,0.032-0.097c0-0.044-0.011-0.076-0.032-0.095c-0.021-0.019-0.056-0.029-0.104-0.029h-0.098v0.25H195.74
				 M195.642,336.42v0.369h-0.232v-0.975h0.354c0.118,0,0.205,0.022,0.26,0.065c0.055,0.043,0.083,0.111,0.083,0.204
				c0,0.064-0.014,0.117-0.043,0.159c-0.029,0.041-0.072,0.072-0.129,0.091c0.032,0.008,0.06,0.026,0.085,0.054
				c0.025,0.027,0.052,0.074,0.072,0.13l0.091,0.272h-0.208l-0.11-0.242c-0.022-0.049-0.045-0.082-0.067-0.1
				c-0.022-0.018-0.053-0.027-0.09-0.027H195.642"/>
			<path id="path1959" style="fill:#015F8B;" d="M170.008,338.32v-0.417l2.079-0.028c1.955-0.026,2.087-0.039,2.214-0.212
				c0.074-0.101,0.122-0.288,0.108-0.414l-0.027-0.23l-1.749-0.046c-1.631-0.043-1.773-0.061-2.096-0.261
				c-0.541-0.336-0.574-0.454-0.574-2.017v-1.404l0.575,0l0.575,0v1.321c0,1.756-0.092,1.672,1.828,1.672h1.441l0.025-1.542
				l0.025-1.542h0.596h0.596l0,2.187c0,2.572-0.029,2.685-0.782,3.061c-0.446,0.223-0.529,0.231-2.647,0.26l-2.187,0.03V338.32z
				 M164.43,337.058c-0.156-0.045-0.348-0.156-0.426-0.245c-0.078-0.089-0.561-1.095-1.073-2.234L162,332.507l-0.002,2.279
				l-0.002,2.279h-0.598H160.8v-2.511c0-2.908-0.016-2.847,0.785-3.013c0.588-0.122,1.012-0.024,1.307,0.302
				c0.102,0.112,0.573,1.106,1.047,2.207c0.474,1.101,0.884,2.002,0.911,2.002c0.027,0,0.442-0.894,0.923-1.987
				c0.497-1.129,0.982-2.098,1.124-2.244c0.376-0.388,0.925-0.446,1.649-0.174c0.417,0.157,0.449,0.374,0.449,2.983v2.436h-0.598
				h-0.598l-0.004-2.279c-0.005-2.66,0.118-2.668-1.104,0.069c-0.418,0.937-0.821,1.796-0.894,1.909s-0.285,0.247-0.47,0.299
				C164.936,337.171,164.816,337.17,164.43,337.058z M196.017,332.906c-0.202-0.152-0.658-0.423-1.012-0.602
				c-0.994-0.501-1.703-1.159-1.703-1.581c0-0.129,0.78-0.362,1.451-0.434c0.451-0.048,0.556-0.087,0.48-0.179
				c-0.219-0.263-1.557-1.052-2.115-1.246c-0.329-0.115-0.673-0.272-0.764-0.349c-0.171-0.146-0.628-1.055-1.319-2.622
				c-0.481-1.092-0.999-1.836-1.846-2.65c-1.106-1.065-2.021-1.555-3.152-1.689c-0.323-0.038-0.63-0.15-0.877-0.32
				c-0.754-0.519-1.452-0.701-1.564-0.408c-0.06,0.156,0.018,0.303,0.651,1.223c0.225,0.327,0.504,0.92,0.675,1.434
				c0.188,0.566,0.404,1.011,0.607,1.253c0.367,0.439,0.37,0.467,0.139,1.164c-0.254,0.766-0.302,1.246-0.188,1.898
				c0.101,0.577,0.412,1.258,0.605,1.322c0.064,0.021,0.127-0.182,0.168-0.539c0.065-0.571,0.224-0.994,0.49-1.297
				c0.129-0.147,0.164-0.106,0.439,0.529c0.374,0.861,1.072,1.99,1.559,2.522c0.551,0.602,0.102,0.303-0.661-0.441
				c-0.369-0.36-0.775-0.863-0.914-1.134c-0.236-0.459-0.254-0.474-0.317-0.258c-0.037,0.127-0.071,0.358-0.076,0.515
				c-0.016,0.483-0.485,0.736-0.928,0.499c-0.245-0.131-0.553-0.668-0.701-1.223c-0.181-0.68-0.161-1.481,0.058-2.317
				c0.187-0.712,0.187-0.722,0.01-0.915c-0.252-0.276-0.525-0.848-0.804-1.684c-0.145-0.435-0.392-0.92-0.623-1.223
				c-0.211-0.276-0.433-0.587-0.495-0.691c-0.168-0.283-0.142-0.829,0.051-1.068c0.315-0.389,1.387-0.189,2.173,0.407
				c0.18,0.136,0.463,0.232,0.788,0.265c0.279,0.029,0.683,0.113,0.899,0.188c0.924,0.32,2.249,1.322,3.116,2.357
				c0.58,0.692,0.787,1.061,1.824,3.259l0.6,1.27l0.621,0.281c1.115,0.506,2.684,1.735,2.587,2.027
				c-0.022,0.067-0.224,0.155-0.447,0.196c-1.005,0.182-1.377,0.286-1.346,0.379c0.018,0.055,0.337,0.309,0.71,0.565
				c0.612,0.42,1.652,1.459,1.556,1.554C196.402,333.166,196.219,333.059,196.017,332.906z M186.108,322.908
				c-0.303-0.487-0.302-0.483-0.06-0.483c0.289,0,0.44,0.163,0.44,0.473C186.488,323.286,186.345,323.289,186.108,322.908z"/>
		</g>
	</g>
</g>
<g id="Laravel" style="display:none;">
	<path style="display:inline;fill-rule:evenodd;clip-rule:evenodd;fill:#FF2D20;" d="M37.486,10.133
		c0.013,0.048,0.02,0.098,0.02,0.147v7.736c0,0.202-0.108,0.389-0.283,0.489l-6.493,3.738v7.41c0,0.202-0.107,0.388-0.282,0.489
		l-13.554,7.803c-0.031,0.018-0.065,0.029-0.099,0.041c-0.013,0.004-0.025,0.012-0.038,0.016c-0.095,0.025-0.194,0.025-0.289,0
		c-0.016-0.004-0.03-0.013-0.044-0.018c-0.031-0.011-0.063-0.021-0.093-0.038L2.778,30.143c-0.175-0.101-0.283-0.287-0.283-0.489
		V6.445c0-0.051,0.007-0.1,0.02-0.148c0.004-0.016,0.014-0.031,0.02-0.047c0.011-0.03,0.02-0.06,0.036-0.087
		c0.011-0.018,0.026-0.033,0.039-0.05c0.016-0.023,0.031-0.046,0.05-0.066C2.675,6.03,2.696,6.018,2.714,6.004
		c0.02-0.017,0.039-0.035,0.062-0.049h0.001l6.776-3.901c0.175-0.1,0.389-0.1,0.564,0l6.776,3.901h0.001
		c0.023,0.014,0.042,0.032,0.062,0.048c0.018,0.014,0.039,0.027,0.055,0.042c0.02,0.02,0.034,0.044,0.051,0.066
		c0.012,0.017,0.028,0.032,0.038,0.05c0.016,0.028,0.025,0.058,0.037,0.087c0.006,0.016,0.016,0.031,0.02,0.048
		c0.013,0.048,0.02,0.098,0.02,0.147v14.496l5.646-3.251v-7.411c0-0.049,0.007-0.099,0.02-0.147c0.005-0.017,0.014-0.032,0.02-0.048
		c0.011-0.03,0.021-0.06,0.037-0.087c0.011-0.018,0.026-0.033,0.038-0.05c0.017-0.023,0.031-0.046,0.051-0.066
		c0.016-0.016,0.037-0.028,0.055-0.042c0.021-0.017,0.039-0.035,0.062-0.049h0.001l6.777-3.901c0.175-0.101,0.39-0.101,0.564,0
		l6.776,3.901c0.024,0.014,0.042,0.032,0.063,0.048c0.018,0.014,0.038,0.027,0.054,0.042c0.02,0.02,0.034,0.044,0.051,0.066
		c0.013,0.017,0.028,0.032,0.038,0.05c0.016,0.027,0.025,0.058,0.037,0.087C37.473,10.101,37.482,10.116,37.486,10.133z
		 M36.376,17.69v-6.433l-2.371,1.365l-3.276,1.886v6.433L36.376,17.69L36.376,17.69z M29.6,29.328V22.89l-3.222,1.84l-9.202,5.252
		v6.498C17.176,36.48,29.6,29.328,29.6,29.328z M3.624,7.421v21.906l12.423,7.152v-6.497l-6.49-3.673l-0.002-0.001l-0.003-0.001
		c-0.022-0.013-0.04-0.031-0.061-0.047c-0.018-0.014-0.038-0.025-0.054-0.041l-0.001-0.002C9.418,26.2,9.405,26.178,9.39,26.158
		c-0.014-0.019-0.031-0.035-0.042-0.055l-0.001-0.002c-0.013-0.021-0.02-0.047-0.03-0.071c-0.009-0.021-0.021-0.041-0.027-0.063
		v-0.001c-0.007-0.027-0.008-0.055-0.011-0.082C9.276,25.863,9.27,25.842,9.27,25.82v-0.001V10.673L5.995,8.786L3.624,7.421
		L3.624,7.421z M9.836,3.195L4.19,6.445l5.644,3.25l5.645-3.251L9.834,3.195L9.836,3.195z M12.772,23.477l3.275-1.885V7.421
		l-2.371,1.365L10.4,10.673v14.17C10.4,24.842,12.772,23.477,12.772,23.477z M30.165,7.03l-5.645,3.25l5.645,3.25l5.644-3.251
		C35.809,10.279,30.165,7.03,30.165,7.03z M29.6,14.508l-3.276-1.886l-2.371-1.365v6.433l3.275,1.885l2.372,1.366
		C29.6,20.941,29.6,14.508,29.6,14.508z M16.611,29.005l8.28-4.727l4.139-2.362l-5.641-3.248l-6.495,3.739l-5.919,3.408
		C10.975,25.815,16.611,29.005,16.611,29.005z"/>
</g>
<g id="Jira" style="display:none;">
	<g style="display:inline;">
		<path id="path8005" style="fill:#2684FF;" d="M37.065,18.988L21.507,3.43l-1.508-1.507L2.934,18.988
			c-0.558,0.559-0.558,1.465,0,2.023l10.7,10.699l6.365,6.367l17.066-17.066C37.623,20.453,37.623,19.547,37.065,18.988z
			 M19.999,25.344L14.655,20l5.344-5.346L25.344,20L19.999,25.344z"/>
		
			<linearGradient id="path8015_1_" gradientUnits="userSpaceOnUse" x1="-111.341" y1="195.7861" x2="-114.8568" y2="192.2713" gradientTransform="matrix(1.7409 0 0 -1.7409 211.5305 351.4277)">
			<stop  offset="0" style="stop-color:#0052CC"/>
			<stop  offset="1" style="stop-color:#2684FF"/>
		</linearGradient>
		<path id="path8015" style="fill:url(#path8015_1_);" d="M19.999,14.655c-3.499-3.5-3.517-9.169-0.037-12.69L8.265,13.657
			l6.367,6.367L19.999,14.655z"/>
		
			<linearGradient id="path8025_1_" gradientUnits="userSpaceOnUse" x1="-108.6635" y1="185.011" x2="-105.1548" y2="188.5198" gradientTransform="matrix(1.7409 0 0 -1.7409 211.5305 351.4277)">
			<stop  offset="0" style="stop-color:#0052CC"/>
			<stop  offset="1" style="stop-color:#2684FF"/>
		</linearGradient>
		<path id="path8025" style="fill:url(#path8025_1_);" d="M25.359,19.985l-5.36,5.359c1.689,1.688,2.639,3.978,2.639,6.367
			c0,2.388-0.95,4.677-2.639,6.367l11.725-11.725C31.724,26.352,25.359,19.985,25.359,19.985z"/>
	</g>
</g>
<g id="Js" style="display:none;">
	<rect x="2" y="2" style="display:inline;fill:#F7DF1E;" width="36.024" height="36.024"/>
	<path style="display:inline;" d="M26.199,30.144c0.726,1.185,1.67,2.056,3.339,2.056c1.403,0,2.299-0.701,2.299-1.67
		c0-1.161-0.921-1.572-2.465-2.247l-0.846-0.363c-2.443-1.041-4.066-2.344-4.066-5.101c0-2.539,1.934-4.472,4.958-4.472
		c2.152,0,3.7,0.749,4.815,2.71l-2.636,1.693c-0.58-1.041-1.207-1.451-2.179-1.451c-0.992,0-1.62,0.629-1.62,1.451
		c0,1.016,0.629,1.427,2.081,2.056l0.846,0.363c2.876,1.233,4.5,2.491,4.5,5.318c0,3.048-2.394,4.717-5.61,4.717
		c-3.144,0-5.175-1.498-6.169-3.462L26.199,30.144z M14.241,30.438c0.532,0.943,1.016,1.741,2.179,1.741
		c1.112,0,1.814-0.435,1.814-2.127V18.541h3.385v11.556c0,3.505-2.055,5.101-5.055,5.101c-2.71,0-4.28-1.403-5.078-3.092
		L14.241,30.438z"/>
</g>
<g id="Html5" style="display:none;">
	<g style="display:inline;">
		<path d="M9.707,2.148h1.604v1.59h1.478v-1.59h1.604v4.812h-1.604V5.355h-1.464v1.604H9.707 M16.513,3.752h-1.416V2.148h4.442
			v1.604h-1.423v3.208h-1.604 M20.244,2.148h1.681l1.032,1.695l1.032-1.695h1.681v4.812h-1.604V4.574l-1.123,1.729L21.82,4.574
			v2.385h-1.576 M26.465,2.148h1.604v3.222h2.273v1.59h-3.877"/>
		<path style="fill:#E44D26;" d="M9.651,34.993L7.35,9.163h25.3l-2.301,25.816l-10.37,2.873"/>
		<path style="fill:#F16529;" d="M20,35.656V11.283h10.342L28.368,33.32"/>
		<path style="fill:#EBEBEB;" d="M12.05,14.442H20v3.166h-4.477l0.293,3.243H20v3.159h-7.085 M13.054,25.6h3.18l0.223,2.531
			L20,29.08v3.305l-6.499-1.813"/>
		<path style="fill:#FFFFFF;" d="M27.922,14.442h-7.936v3.166h7.643 M27.343,20.851h-7.357v3.166h3.905l-0.37,4.114l-3.536,0.948
			v3.292l6.485-1.799"/>
	</g>
</g>
<g id="Git" style="display:none;">
	<g style="display:inline;">
		<path style="fill:#F05133;" d="M37.323,18.397L21.603,2.679c-0.904-0.905-2.373-0.905-3.278,0l-3.264,3.264l4.14,4.14
			c0.963-0.325,2.066-0.107,2.833,0.66c0.771,0.772,0.987,1.884,0.654,2.85l3.99,3.99c0.965-0.333,2.079-0.118,2.85,0.655
			c1.078,1.077,1.078,2.823,0,3.901c-1.078,1.078-2.824,1.078-3.902,0c-0.81-0.811-1.011-2.002-0.6-3l-3.722-3.722l0,9.793
			c0.263,0.13,0.511,0.304,0.73,0.522c1.077,1.077,1.077,2.823,0,3.902c-1.078,1.077-2.824,1.077-3.901,0
			c-1.078-1.079-1.078-2.825,0-3.902c0.266-0.266,0.574-0.467,0.903-0.602v-9.884c-0.329-0.134-0.637-0.334-0.903-0.602
			c-0.816-0.816-1.013-2.014-0.594-3.016l-4.081-4.082L2.679,18.324c-0.906,0.906-0.906,2.374,0,3.279l15.719,15.718
			c0.905,0.905,2.373,0.905,3.279,0l15.646-15.643c0.905-0.906,0.905-2.374,0-3.28"/>
	</g>
</g>
<g id="Css3" style="display:none;">
	<g style="display:inline;">
		<g id="_x23_000000ff">
			<path d="M12.339,2.105c1.569-0.019,3.139-0.006,4.708-0.007c0.004,0.491,0.011,0.982-0.007,1.473
				c-1.087-0.007-2.174,0-3.261,0.007c-0.007,0.713-0.022,1.426-0.015,2.139c1.091,0.007,2.183,0.017,3.274,0.013
				c0.013,0.404,0.008,0.809-0.004,1.213c-1.565-0.01-3.13-0.006-4.695-0.004C12.344,5.326,12.347,3.716,12.339,2.105z"/>
			<path d="M17.607,2.099c1.589-0.003,3.178-0.013,4.767,0.005c-0.006,0.464-0.001,0.927-0.001,1.392
				c-1.156-0.004-2.313,0.001-3.469,0.015c0.001,0.182,0.001,0.365,0,0.547c1.155,0.019,2.309,0.021,3.463,0.028
				c0.004,0.951,0.002,1.902,0.008,2.853c-1.59-0.003-3.179-0.001-4.769,0.006c-0.008-0.384-0.009-0.768,0.002-1.152
				c1.102,0.003,2.204,0.004,3.306-0.004c0.007-0.247,0.01-0.495,0.009-0.743c-1.107,0-2.214,0.004-3.321-0.004
				C17.601,4.061,17.601,3.08,17.607,2.099z"/>
			<path d="M22.907,2.108c1.586,0,3.173,0,4.758,0c0.007,0.466,0.013,0.933-0.001,1.398c-1.161-0.001-2.323,0.006-3.484,0.008
				c0.003,0.191,0.007,0.381,0.017,0.572c1.155-0.005,2.309,0.009,3.463,0.021c0.01,0.947,0.018,1.894,0.004,2.841
				c-1.59-0.004-3.179-0.004-4.769,0.003c-0.01-0.383-0.013-0.767,0.004-1.149c1.099,0.008,2.199,0.007,3.3-0.004
				c0.003-0.248,0.008-0.496,0.006-0.744c-1.104,0.01-2.208,0.004-3.313,0.001C22.892,4.072,22.899,3.09,22.907,2.108z"/>
		</g>
		<g id="_x23_0170baff">
			<path style="fill:#0170BA;" d="M7.23,8.943c8.514-0.001,17.027-0.001,25.541,0c-0.469,5.295-0.93,10.59-1.418,15.884
				c-0.29,3.383-0.589,6.767-0.904,10.148c-1.817,0.481-3.616,1.03-5.432,1.513c-1.668,0.49-3.35,0.933-5.019,1.418h-0.049
				c-1.588-0.472-3.192-0.888-4.78-1.36c-1.874-0.505-3.732-1.069-5.607-1.572c-0.244-2.534-0.465-5.07-0.682-7.606
				c-0.41-4.685-0.856-9.367-1.251-14.053c-0.137-1.41-0.235-2.825-0.398-4.232V8.943 M20.04,11.032
				c-0.018,1.017,0.013,2.035-0.018,3.051c-2.921-0.01-5.842-0.002-8.763,0.001c0.05,0.987,0.182,1.968,0.318,2.947
				c2.717,0.101,5.439-0.004,8.156,0.078c-2.377,1.066-4.784,2.071-7.172,3.115c-0.205,0.091-0.424,0.16-0.607,0.293
				c0.02,1.084,0.195,2.163,0.272,3.245c1.448-0.005,2.896-0.028,4.344-0.031c1.161-0.006,2.322,0.017,3.483-0.008
				c-0.055,1.783,0.017,3.569-0.037,5.352c-0.781-0.116-1.552-0.29-2.33-0.428c-0.614-0.134-1.242-0.203-1.847-0.379
				c-0.086-0.856-0.146-1.714-0.222-2.571c-0.175-0.054-0.36-0.049-0.541-0.052c-0.877,0.005-1.756-0.003-2.634,0.01
				c0.086,1.646,0.234,3.291,0.486,4.921c0.865,0.226,1.732,0.447,2.596,0.682c1.324,0.36,2.664,0.66,3.989,1.014
				c0.158,0.034,0.317,0.092,0.481,0.078c0.088,1.083,0.02,2.173,0.037,3.258c0.306-0.049,0.606-0.125,0.901-0.216
				c2.51-0.682,5.016-1.376,7.524-2.064c0.125-0.987,0.183-1.98,0.282-2.969c0.261-3.006,0.524-6.012,0.797-9.017
				c0.321-3.438,0.598-6.879,0.921-10.317C26.984,11.03,23.512,11.021,20.04,11.032z"/>
		</g>
		<g id="_x23_29a9dfff">
			<path style="fill:#29A9DF;" d="M20.04,11.032c3.472-0.011,6.944-0.001,10.417-0.004c-0.323,3.438-0.6,6.879-0.921,10.317
				c-0.274,3.005-0.537,6.011-0.797,9.017c-0.099,0.989-0.157,1.982-0.282,2.969c-2.508,0.688-5.015,1.383-7.524,2.064
				c-0.295,0.091-0.596,0.167-0.901,0.216c-0.016-1.086,0.052-2.176-0.037-3.258c0.022-0.004,0.068-0.013,0.09-0.018
				c2.334-0.586,4.652-1.231,6.981-1.838c0.294-3.303,0.621-6.605,0.828-9.915c-1.981,0.01-3.962,0.004-5.942,0.013
				c-0.288,0.001-0.577,0-0.864-0.021c1.066-0.549,2.187-0.984,3.281-1.473c1.05-0.476,2.113-0.922,3.167-1.389
				c0.203-0.093,0.42-0.171,0.599-0.31c0.07-0.258,0.067-0.528,0.094-0.791c0.061-0.837,0.168-1.67,0.209-2.507
				c-2.805-0.022-5.61-0.003-8.415-0.018C20.053,13.067,20.022,12.049,20.04,11.032z"/>
			<path style="fill:#29A9DF;" d="M20.054,23.723c1.354-0.023,2.709,0.013,4.064,0.004c-0.075,1.385-0.191,2.767-0.262,4.152
				c-0.83,0.271-1.673,0.501-2.51,0.752c-0.446,0.136-0.904,0.244-1.329,0.443C20.071,27.291,19.999,25.506,20.054,23.723z"/>
		</g>
		<g id="_x23_cfcfcfff">
			<path style="fill:#CFCFCF;" d="M11.259,14.084c2.921-0.003,5.842-0.011,8.763-0.001c0.038,3.214-0.01,6.427,0.032,9.639
				c-1.161,0.025-2.322,0.002-3.483,0.008c-1.448,0.002-2.896,0.025-4.344,0.031c-0.077-1.082-0.252-2.161-0.272-3.245
				c0.183-0.133,0.402-0.202,0.607-0.293c2.388-1.044,4.794-2.049,7.172-3.115c-2.717-0.081-5.439,0.023-8.156-0.078
				C11.442,16.052,11.309,15.071,11.259,14.084z"/>
			<path style="fill:#CFCFCF;" d="M12.443,25.655c0.878-0.013,1.756-0.005,2.634-0.01c0.181,0.003,0.366-0.002,0.541,0.052
				c0.076,0.856,0.136,1.715,0.222,2.571c0.605,0.176,1.233,0.245,1.847,0.379c0.778,0.138,1.549,0.312,2.33,0.428
				c0.075,1.085-0.056,2.178,0.069,3.259c-0.022,0.004-0.068,0.013-0.09,0.018c-0.164,0.013-0.323-0.045-0.481-0.078
				c-1.326-0.354-2.666-0.654-3.989-1.014c-0.864-0.235-1.731-0.457-2.596-0.682C12.677,28.946,12.529,27.302,12.443,25.655z"/>
		</g>
		<g id="_x23_ffffffff">
			<path style="fill:#FFFFFF;" d="M20.022,14.083c2.806,0.015,5.61-0.004,8.415,0.018c-0.04,0.838-0.148,1.67-0.209,2.507
				c-0.028,0.264-0.024,0.534-0.094,0.791c-0.179,0.139-0.395,0.217-0.599,0.31c-1.054,0.467-2.117,0.913-3.167,1.389
				c-1.094,0.49-2.215,0.924-3.281,1.473c0.287,0.021,0.575,0.022,0.864,0.021c1.981-0.008,3.962-0.002,5.942-0.013
				c-0.207,3.31-0.534,6.612-0.828,9.915c-2.329,0.607-4.647,1.252-6.981,1.838c-0.125-1.081,0.006-2.174-0.069-3.259
				c0.424-0.2,0.883-0.307,1.329-0.443c0.837-0.251,1.68-0.481,2.51-0.752c0.072-1.385,0.187-2.767,0.262-4.152
				c-1.355,0.009-2.71-0.028-4.064-0.004C20.012,20.51,20.06,17.297,20.022,14.083z"/>
		</g>
	</g>
</g>
<g id="Angular" style="display:none;">
	<g style="display:inline;">
		<polygon style="fill:#DD0031;" points="20,2.068 20,2.068 20,2.068 3.305,8.021 5.852,30.096 20,37.932 20,37.932 20,37.932 
			34.148,30.096 36.695,8.021 		"/>
		<polygon style="fill:#C3002F;" points="20,2.068 20,6.049 20,6.031 20,24.196 20,24.196 20,37.932 20,37.932 34.148,30.096 
			36.695,8.021 		"/>
		<path style="fill:#FFFFFF;" d="M20,6.031L9.563,29.432l0,0h3.891l0,0l2.098-5.236h8.858l2.098,5.236l0,0h3.891l0,0L20,6.031
			L20,6.031L20,6.031L20,6.031L20,6.031z M23.048,20.968h-6.097L20,13.634L23.048,20.968z"/>
	</g>
</g>
</svg>
